<svg id="Layer_1" data-name="Layer 1" xmlns="http://www.w3.org/2000/svg" viewBox="0 0 935.73 362.87">
  <defs>
    <style>
      .cls-1 {
        fill: #fff;
      }

      .cls-2 {
        fill: #3eaf7c;
      }
    </style>
  </defs>
  <g>
    <g>
      <circle class="cls-1" cx="599.09" cy="220.56" r="30.85"/>
      <g>
        <g>
          <path class="cls-1" d="M119.3,242q-50.39,0-87.16-37.78l35.79-43.75q25.84,26.19,53.69,26.18,10.26,0,15.24-4.47a14,14,0,0,0,5-10.77,14.61,14.61,0,0,0-5.8-11.93q-5.81-4.63-24-10.61a196.53,196.53,0,0,1-26.67-10.77,135.9,135.9,0,0,1-22-14.25,55.72,55.72,0,0,1-17.07-22q-5.8-13.24-5.8-30.49,0-30.15,22.37-50.37T119,0q46.74-1,83.19,31.48l-34.8,44.74Q139.84,55.05,122.61,55,106,55,106,69q0,6.3,6,11.6t22.87,11.93q36.8,13.92,48.39,21.88,24.86,16.89,24.85,49.71,0,21.21-8.12,36.95t-21.7,24.36A102.9,102.9,0,0,1,150,238,117.26,117.26,0,0,1,119.3,242Z" transform="translate(-32.14)"/>
          <path class="cls-1" d="M232.3,238.64V3.34h92.46q39.44,0,58.66,15.08t19.23,42.26q0,37.77-36.13,51.37v.66q48.39,12.6,48.39,59.65,0,30.16-19.72,48.22T337,238.64Zm61-142.5H318.8q21.54,0,21.54-18.89,0-9.28-5.47-14.25t-19.72-5H293.28Zm0,88.48h32.48q23.87,0,23.86-21.54,0-9.95-6.3-15.41t-17.56-5.47H293.28Z" transform="translate(-32.14)"/>
        </g>
        <path class="cls-1" d="M584.39,220.56a46.84,46.84,0,0,1,46.83-46.84,49,49,0,0,1,5.17.29q10.17-23.13,10.17-52.69,0-52.68-33.31-85.33T524.6,3.34H439.76v235.3h85.83q34,0,59.23-11.77A48.57,48.57,0,0,1,584.39,220.56ZM564,164.9q-16.57,17.74-42.75,17.74H500.74V59.35h25.19q23.19,0,38.94,17.9t15.74,44.07Q580.61,147.18,564,164.9Z" transform="translate(-32.14)"/>
      </g>
    </g>
    <g>
      <path class="cls-2" d="M670.51,362.12a98.43,98.43,0,0,1-41-8.85,83.62,83.62,0,0,1-32.37-25.41l30.48-37.64q17.7,22.21,39.9,22.21,32,0,32-45.54V92.24h53.07V266.51Q752.57,362.12,670.51,362.12Z" transform="translate(-32.14)"/>
      <path class="cls-2" d="M873,362.87q-56.09,0-97.49-42.53l32-39.15A102.34,102.34,0,0,0,839.7,306q17.88,8.67,34.44,8.66,18.43,0,28.23-7.72t9.79-20.51q0-13.92-10-21.45t-36.32-16.57q-14.31-4.87-24.28-9.22a164.91,164.91,0,0,1-21.45-11.48A83,83,0,0,1,801.5,212.5a66.14,66.14,0,0,1-11.86-20.33,74.27,74.27,0,0,1-4.71-26.91q0-32,24.85-54t61-22.4q48.93,0,90.34,33.88l-30.87,39.89q-32.37-26.34-58.34-26.34-14.31,0-23.15,7.15T839.51,163a21.39,21.39,0,0,0,9.6,18.44q9.6,6.78,35.57,16.94,41.4,16.19,54.2,24.84,29,19.59,29,56.84,0,27.85-15.05,47.24t-35.76,27.48A120,120,0,0,1,873,362.87Z" transform="translate(-32.14)"/>
    </g>
  </g>
</svg>
