<svg id="Layer_1" data-name="Layer 1" xmlns="http://www.w3.org/2000/svg" viewBox="0 0 999.96 999.96">
  <defs>
    <style>
      .cls-1 {
        fill: #090a16;
      }

      .cls-2 {
        fill: #fff;
      }

      .cls-3 {
        fill: #3eaf7c;
      }
    </style>
  </defs>
  <rect class="cls-1" width="999.96" height="999.96"/>
  <g>
    <g>
      <circle class="cls-2" cx="631.22" cy="535.48" r="30.85"/>
      <g>
        <g>
          <path class="cls-2" d="M119.3,556.89q-50.39,0-87.16-37.78l35.79-43.75q25.84,26.17,53.69,26.18,10.26,0,15.24-4.47a14,14,0,0,0,5-10.77,14.64,14.64,0,0,0-5.8-11.94q-5.81-4.64-24-10.6A197.84,197.84,0,0,1,85.33,453a136.57,136.57,0,0,1-22-14.25,55.72,55.72,0,0,1-17.07-22q-5.8-13.24-5.8-30.49,0-30.15,22.37-50.37T119,315q46.74-1,83.19,31.48l-34.8,44.74Q139.84,370,122.61,370,106,370,106,383.89q0,6.3,6,11.6t22.87,11.93q36.8,13.92,48.39,21.87,24.86,16.9,24.85,49.71,0,21.22-8.12,37t-21.7,24.35A102.64,102.64,0,0,1,150,552.91,117.26,117.26,0,0,1,119.3,556.89Z"/>
          <path class="cls-2" d="M232.3,553.57V318.27h92.46q39.44,0,58.66,15.08t19.23,42.26q0,37.77-36.13,51.36v.67q48.39,12.6,48.39,59.65,0,30.16-19.72,48.22T337,553.57Zm61-142.5H318.8q21.54,0,21.54-18.89,0-9.29-5.47-14.25t-19.72-5H293.28Zm0,88.48h32.48q23.87,0,23.86-21.54,0-9.94-6.3-15.41t-17.56-5.47H293.28Z"/>
        </g>
        <path class="cls-2" d="M584.39,535.48a46.83,46.83,0,0,1,46.83-46.83,49,49,0,0,1,5.17.29q10.17-23.13,10.17-52.69,0-52.69-33.31-85.33T524.6,318.27H439.76v235.3h85.83q34,0,59.23-11.77A48.6,48.6,0,0,1,584.39,535.48ZM564,479.83q-16.57,17.75-42.75,17.73H500.74V374.28h25.19q23.19,0,38.94,17.9t15.74,44.07Q580.61,462.11,564,479.83Z"/>
      </g>
    </g>
    <g>
      <path class="cls-3" d="M670.51,677a98.42,98.42,0,0,1-41-8.84,83.62,83.62,0,0,1-32.37-25.41l30.48-37.64q17.7,22.22,39.9,22.21,32,0,32-45.54V407.17h53.07V581.44Q752.57,677.05,670.51,677Z"/>
      <path class="cls-3" d="M873,677.8q-56.09,0-97.49-42.54l32-39.14A102.34,102.34,0,0,0,839.7,621q17.88,8.67,34.44,8.66,18.43,0,28.23-7.72t9.79-20.51q0-13.92-10-21.46t-36.32-16.56q-14.31-4.89-24.28-9.22a164.91,164.91,0,0,1-21.45-11.48,83,83,0,0,1-18.63-15.24,66.14,66.14,0,0,1-11.86-20.33,74.3,74.3,0,0,1-4.71-26.91q0-32,24.85-54t61-22.39q48.93,0,90.34,33.87l-30.87,39.9q-32.37-26.34-58.34-26.34-14.31,0-23.15,7.15t-9.22,19.57a21.39,21.39,0,0,0,9.6,18.44q9.6,6.78,35.57,16.94,41.4,16.19,54.2,24.84,29,19.58,29,56.84,0,27.85-15.05,47.24T917.05,669.7A119.77,119.77,0,0,1,873,677.8Z"/>
    </g>
  </g>
</svg>
